<svg xmlns="http://www.w3.org/2000/svg" viewBox="0 0 734.04 157.56"><defs><style>.cls-1{fill:#151226;}</style></defs><g id="Layer_2" data-name="Layer 2"><g id="Layer_1-2" data-name="Layer 1"><path class="cls-1" d="M699.68,139.35c-7.46,0-20.9-3.09-20.9-3.09a72.09,72.09,0,0,0-7.81-2.43,6.91,6.91,0,0,0,.56-2.76c0-3.22-2.1-5.84-4.69-5.84a4.58,4.58,0,0,0-4,2.71,9,9,0,0,0-1.87-3.35,6.2,6.2,0,0,0-4.61-2.19,5.94,5.94,0,0,0-3.61,1.27,6.26,6.26,0,0,0-5.38-3.56c-2.61,0-4.87,1.93-5.9,4.7a5.34,5.34,0,0,0-3.83-1.71,5.47,5.47,0,0,0-4.09,2l-.41,0a3.62,3.62,0,0,0-1.19.2c-1.49-3.14-4.24-5.27-7.4-5.27-3.55,0-6.61,2.69-7.91,6.53a17.68,17.68,0,0,0-1.08-1.46,8.4,8.4,0,0,0,1-4c0-3.93-2.56-7.12-5.72-7.12a4.68,4.68,0,0,0-2,.44c-.75-3.43-3.26-6-6.26-6a6.41,6.41,0,0,0-5.64,4.11,6.57,6.57,0,0,0-5-2.47c-4,0-7.28,4-7.28,9.06a11.05,11.05,0,0,0,.35,2.79,27.08,27.08,0,0,0-1.8,2.06,5.15,5.15,0,0,0-2.35-.59,6,6,0,0,0-5.12,3.42,5.26,5.26,0,0,0-4.52-3,4.93,4.93,0,0,0-3.83,2,5.34,5.34,0,0,0-8.9,0h0a6.26,6.26,0,0,0-1.31.15,6.83,6.83,0,0,0-5.82-3.74,6.39,6.39,0,0,0-4.92,2.45,5.31,5.31,0,0,0-3.36-1.25c-3.11,0-5.67,2.87-6.09,6.59h-.06a3.18,3.18,0,0,0-1.72.5,4,4,0,0,0-2.77-1.19,4.55,4.55,0,0,0-4.06,3.24,4.22,4.22,0,0,0-3.15-1.52,4.56,4.56,0,0,0-3.9,2.55,3.66,3.66,0,0,0-3.32-3,3.1,3.1,0,0,0-2.19,1,1.89,1.89,0,0,0-.58-.08,2.32,2.32,0,0,0-1.24.38,2.71,2.71,0,0,0-1.85-.79c-1.72,0-3.1,1.73-3.1,3.86V135c-6.95,1-10,5-10,5-10,0-27.87,5.59-27.87,5.59H734C732.29,143.38,699.68,139.35,699.68,139.35Z"/><path class="cls-1" d="M274,57.41a10.91,10.91,0,0,0-7.16-4.25v0c0-1.81-1-3.27-2.22-3.27a1.88,1.88,0,0,0-1.34.66,1.51,1.51,0,0,0-.88-.32h-.14a2.3,2.3,0,0,0-.28.06,2.07,2.07,0,0,0-1.57-.82c-1.12,0-2.07,1.08-2.39,2.57a3.29,3.29,0,0,0-2.8-2.16A2.91,2.91,0,0,0,253,51.12c-.51-1.61-1.62-2.74-2.91-2.74a2.61,2.61,0,0,0-2,1,2.14,2.14,0,0,0-1.24-.43h-.06c-.3-3.14-2.14-5.57-4.37-5.57A3.52,3.52,0,0,0,240,44.45a4.42,4.42,0,0,0-3.54-2.08c-1.72,0-3.25,1.25-4.18,3.17a3.75,3.75,0,0,0-.95-.13h0a4,4,0,0,0-3.2-2,3.91,3.91,0,0,0-3.2,2,3.43,3.43,0,0,0-2.75-1.65,3.82,3.82,0,0,0-3.26,2.52c-.79-1.73-2.14-2.89-3.67-2.89a3.3,3.3,0,0,0-1.69.5,20.33,20.33,0,0,0-1.3-1.75,10.51,10.51,0,0,0,.26-2.35c0-4.24-2.34-7.67-5.23-7.67a4.49,4.49,0,0,0-3.59,2.09c-.8-2.08-2.31-3.48-4.06-3.48-2.15,0-4,2.13-4.49,5a2.9,2.9,0,0,0-1.41-.36c-2.28,0-4.11,2.69-4.11,6a8,8,0,0,0,.7,3.37,13.48,13.48,0,0,0-.79,1.23c-.93-3.24-3.12-5.53-5.68-5.53-2.27,0-4.24,1.8-5.31,4.47a2.31,2.31,0,0,0-.86-.17,1.42,1.42,0,0,0-.29,0,3.73,3.73,0,0,0-2.94-1.68,3.63,3.63,0,0,0-2.76,1.45c-.74-2.35-2.36-4-4.23-4-1.61,0-3,1.19-3.87,3A3.91,3.91,0,0,0,161,42.54c-2.14,0-3.94,2-4.67,4.69a3.31,3.31,0,0,0-2.84-2.3c-1.87,0-3.38,2.22-3.38,5a6.66,6.66,0,0,0,.41,2.33,46.19,46.19,0,0,0-5.62,2.06s-9.66,2.62-15,2.62c0,0-23.43,3.4-24.68,5.24H294.05S281.17,57.41,274,57.41Z"/><path class="cls-1" d="M376.15,10.08s-9.85,1-10.38,1.5h79.38a47.5,47.5,0,0,0-8.42-1.35,5,5,0,0,0-3-1.22V9a.93.93,0,0,0-.93-.93,1,1,0,0,0-.56.18,1,1,0,0,0-.38-.08h-.17a1.1,1.1,0,0,0-.66-.23,1,1,0,0,0-1,.73,1.47,1.47,0,0,0-1.19-.61,1.38,1.38,0,0,0-.95.37,1.33,1.33,0,0,0-1.22-.79,1.31,1.31,0,0,0-.83.29,1.15,1.15,0,0,0-.53-.12h0a1.88,1.88,0,0,0-1.84-1.6,1.79,1.79,0,0,0-1,.3,2.22,2.22,0,0,0-1.49-.6,2.16,2.16,0,0,0-1.76.92,1.75,1.75,0,0,0-.4,0h0a1.92,1.92,0,0,0-1.35-.57,1.79,1.79,0,0,0-1.06.34,6.78,6.78,0,0,0-.7-.12v0a.94.94,0,0,0-1.5-.74.74.74,0,0,0-.36-.09l-.18,0a1,1,0,0,0-.66-.24,1.06,1.06,0,0,0-1,.73,1.41,1.41,0,0,0-1.11-.61c0-.1,0-.2,0-.3A2.21,2.21,0,0,0,408.67,3a2.14,2.14,0,0,0-1.5.61,2,2,0,0,0-3.38-.05,2.23,2.23,0,0,0-.89-.2,2.16,2.16,0,0,0-1.76.92,1.75,1.75,0,0,0-.4,0h0a1.85,1.85,0,0,0-2.69,0,1.66,1.66,0,0,0-1.16-.48,1.62,1.62,0,0,0-1.36.73,1.86,1.86,0,0,0-2.26-.69,6.39,6.39,0,0,0-.54-.5,2.47,2.47,0,0,0,.1-.67,2.2,2.2,0,0,0-2.2-2.21,2.14,2.14,0,0,0-1.5.61,2,2,0,0,0-3.6.44,1.63,1.63,0,0,0-.59-.1A1.72,1.72,0,0,0,383.5,4a3.73,3.73,0,0,0-.34.35,2.58,2.58,0,0,0-2.38-1.58,2.55,2.55,0,0,0-2.23,1.28,1.49,1.49,0,0,0-.36,0h-.13A1.85,1.85,0,0,0,375.67,4a2,2,0,0,0-1.78-1.14,2,2,0,0,0-1.63.86,2.09,2.09,0,0,0-3.05,1,1.42,1.42,0,0,0-2.61.76,1.55,1.55,0,0,0,.17.67,23.25,23.25,0,0,0-2.36.59,47.22,47.22,0,0,1-6.31.75s-9.85,1-10.38,1.51h35.93c-.41.09-.8.2-1.19.32A47,47,0,0,1,376.15,10.08Z"/><path class="cls-1" d="M165.43,151.61c-1-.3-2.05-.58-3.12-.85h94.81c-1.41-1.38-27.39-4-27.39-4-5.95,0-16.65-2-16.65-2-2-.6-4.13-1.1-6.23-1.54a3.88,3.88,0,0,0,.43-1.76,3.73,3.73,0,0,0-6.89-2,5.51,5.51,0,0,0-8-2.75,5.18,5.18,0,0,0-9,.74,4.79,4.79,0,0,0-3.07-1.11,4.9,4.9,0,0,0-3.26,1.27h-.32a4.17,4.17,0,0,0-.94.12,6.84,6.84,0,0,0-12.19.8,10.68,10.68,0,0,0-.87-.92,4.71,4.71,0,0,0,.78-2.56,4.52,4.52,0,0,0-6.14-4.27,5.17,5.17,0,0,0-5-3.83,5.11,5.11,0,0,0-4.5,2.66,5.71,5.71,0,0,0-4-1.6,5.82,5.82,0,0,0-5.81,5.79,5.65,5.65,0,0,0,.28,1.8,16.44,16.44,0,0,0-1.43,1.32,5,5,0,0,0-1.87-.37,4.89,4.89,0,0,0-4.09,2.17,4.38,4.38,0,0,0-3.6-1.89,4.24,4.24,0,0,0-3,1.24,4.92,4.92,0,0,0-7.11,0h0a8.9,8.9,0,0,0-1.06.09,5.68,5.68,0,0,0-4.64-2.39,5.46,5.46,0,0,0-2.35.52,5.14,5.14,0,0,0-8.93.12,5.72,5.72,0,0,0-4-1.59,5.79,5.79,0,0,0-5.75,6.62,3.71,3.71,0,0,0-2.93,1.62,2.78,2.78,0,0,0-4.4-1.32,1.42,1.42,0,0,0-.47-.05,2.27,2.27,0,0,0-1,.24,2.57,2.57,0,0,0-1.48-.51,2.46,2.46,0,0,0-2.47,2.47v0c-.67.07-1.27.19-1.85.3a5,5,0,0,0-2.81-.87,4.83,4.83,0,0,0-3.55,1.52h0a7.45,7.45,0,0,0-1.06.09,5.68,5.68,0,0,0-8.56-.83,5,5,0,0,0-2.67-.78,4.9,4.9,0,0,0-4.85,4.22s0,0,0,0a3.35,3.35,0,0,0-1.39.33,3.59,3.59,0,0,0-2.19-.74,3.53,3.53,0,0,0-3.23,2,3.76,3.76,0,0,0-5.63.67A2.77,2.77,0,0,0,37.29,148a2.8,2.8,0,0,0-1.76.63,1.32,1.32,0,0,0-.44-.05,2.32,2.32,0,0,0-1,.23,2.51,2.51,0,0,0-1.47-.51,2.48,2.48,0,0,0-2.47,2.47v.05c-5.54.64-7.94,3.21-7.94,3.21C14.28,154,0,157.56,0,157.56H209.48c-1.39-1.38-27.39-4-27.39-4C176.13,153.6,165.43,151.61,165.43,151.61Z"/><path class="cls-1" d="M526,57.94q-1.07-.31-2.19-.6h66.67c-1-1-19.26-2.79-19.26-2.79a86.79,86.79,0,0,1-11.71-1.4c-1.42-.42-2.91-.77-4.38-1.08a2.72,2.72,0,0,0,.3-1.23,2.63,2.63,0,0,0-4.85-1.42,3.87,3.87,0,0,0-3.63-2.5,3.75,3.75,0,0,0-2,.58,3.64,3.64,0,0,0-6.33.51,3.37,3.37,0,0,0-4.45.12h-.22a2.93,2.93,0,0,0-.67.08,4.8,4.8,0,0,0-8.57.57,7.45,7.45,0,0,0-.61-.65,3.3,3.3,0,0,0,.55-1.81,3.22,3.22,0,0,0-3.21-3.21,3,3,0,0,0-1.1.21,3.66,3.66,0,0,0-3.51-2.69,3.59,3.59,0,0,0-3.16,1.87A4.08,4.08,0,0,0,507,46.71a11.21,11.21,0,0,0-1,.93,3.61,3.61,0,0,0-1.32-.26,3.43,3.43,0,0,0-2.87,1.52,3.1,3.1,0,0,0-2.53-1.33,3,3,0,0,0-2.14.88,3.44,3.44,0,0,0-2.5-1.07,3.39,3.39,0,0,0-2.5,1.07h0a4.42,4.42,0,0,0-.74.07,4,4,0,0,0-3.27-1.69,3.83,3.83,0,0,0-1.65.37,3.62,3.62,0,0,0-6.28.08,4,4,0,0,0-2.79-1.12,4.09,4.09,0,0,0-4.09,4.07,3.81,3.81,0,0,0,.05.59A2.59,2.59,0,0,0,471.26,52a2,2,0,0,0-3.1-.93,1.09,1.09,0,0,0-.32,0,1.55,1.55,0,0,0-.68.16,1.81,1.81,0,0,0-1-.36,1.73,1.73,0,0,0-1.74,1.74v0c-.47,0-.89.13-1.3.21a3.46,3.46,0,0,0-2-.61,3.37,3.37,0,0,0-2.49,1.07h0a6.15,6.15,0,0,0-.75.06,4,4,0,0,0-6-.58,3.49,3.49,0,0,0-1.88-.55,3.45,3.45,0,0,0-3.41,3h0a2.42,2.42,0,0,1-2.51-.3,2.48,2.48,0,0,0-2.27,1.45,2.67,2.67,0,0,0-1.77-.68,2.63,2.63,0,0,0-2.19,1.15,2,2,0,0,0-1.87-1.36,1.91,1.91,0,0,0-1.23.44.83.83,0,0,0-.31,0,1.61,1.61,0,0,0-.7.17,1.79,1.79,0,0,0-1-.36,1.74,1.74,0,0,0-1.73,1.73v0c-3.9.45-5.58,2.25-5.58,2.25-5.58,0-15.63,2.52-15.63,2.52H557c-1-1-19.27-2.79-19.27-2.79A87,87,0,0,1,526,57.94Z"/></g></g></svg>