<svg xmlns="http://www.w3.org/2000/svg" viewBox="0 0 200.76 121.53"><defs><style>.cls-1{fill:#151226;}</style></defs><g id="Layer_2" data-name="Layer 2"><g id="Layer_1-2" data-name="Layer 1"><path class="cls-1" d="M200.76,80.06a38,38,0,0,0-3.92-16.87V55.3A1.81,1.81,0,0,0,195,53.49h-5a39.43,39.43,0,0,0-4.86-4.26L195.8,33.56a1.2,1.2,0,0,0,.79-1.14,1.23,1.23,0,0,0-1.22-1.23H154a2.06,2.06,0,0,0-1.83,1.1l-.39.75a8.62,8.62,0,0,1-3.37,3.26,20.8,20.8,0,0,0-8.17-5.3,8.14,8.14,0,0,0,6.22-5.93c1.33-5.56-5.68-5.32-5.68-5.32-8.82,1.81-17.89-1.09-17.89-1.09-4.11.24-1.33,4.71-1.33,4.71,1.46,2.55,7.83,5.35,10.91,6.58l-12,29c-1.9-2.07-24.59-26.64-42.61-37.71l1.18-2.37a1.16,1.16,0,0,0-.42-1.58l0,0,4-8.19,7.45-2.55S98.5,8.4,99.56,10c0,0,.67.57.13,1.06a.45.45,0,0,0,.21.71s1.18.19,1.09-.85c0,0,.13-1.06-2.06-2.39a16.7,16.7,0,0,0-1.69-.75,30,30,0,0,0-4.08-1.39l-.08-.82.7-.24.14,0-.08.3.38.11.1-.39h0l6.42,1.73a.65.65,0,0,1,0,.53.41.41,0,0,0,.15.66s1,.23,1-.71a1.41,1.41,0,0,0-.1-.18l.9.24a1.22,1.22,0,0,0,.32,0,1.26,1.26,0,0,0,1.21-.92,1.24,1.24,0,0,0-.88-1.53L95,2.93V2.88l6.63,1.4a1.18,1.18,0,0,0,1.4-.92,1.07,1.07,0,0,0,0-.25,1.18,1.18,0,0,0-1-1.15L95.15.63l0-.34-.39,0,0,.24-.16,0L83.33,1.92S74,2,73.26,2.13C67.44,0,63-.56,60,.59a5.88,5.88,0,0,0-3.53,3.52A7.44,7.44,0,0,0,57,10.24v0a14.44,14.44,0,0,0-3.26,10.06,10.12,10.12,0,0,0,1.51,4.78,21.13,21.13,0,0,1,3.15,10.16c-.54,3.64-1.21,6.82-1.73,9a12.53,12.53,0,0,1-.75,1.91,45.53,45.53,0,0,0-20.09-4.6,1,1,0,0,0-1,1.07,3.46,3.46,0,0,0,1.28,2.48c-.63,0-1.26,0-1.9.07A36.54,36.54,0,1,0,72.76,86.5a3.44,3.44,0,0,0,2.87,1.75l.85,0c.63-15.56-3.26-27.57-11.58-35.69a33.94,33.94,0,0,0-3.47-3c3.34-5.19,5.81-9.38,7.35-12.07A1.17,1.17,0,0,0,70,36.94l.55-1.11c4.11,3,23.83,17.67,35,33.93a12.21,12.21,0,0,0-6,10.56l-9-2.35-.3.92-.46,1.22,8,2.28.61-1.16,1.25.35a12.22,12.22,0,0,0,15.55,10.47l11.94-1.7a36.6,36.6,0,0,0,34.69,27.56v1.45h-3.49v2.17h10.23v-2.17H165v-1.53a36.57,36.57,0,0,0,34-36.44c0-.56,0-1.12,0-1.68A4.84,4.84,0,0,0,200.76,80.06ZM94.59,2.84h0l-.12,0ZM91.66,6,92,5.89l0,.21Zm-7.59-.38,8.69-2.49.09,0L84,6ZM82.89,2.53a23.14,23.14,0,0,0-2.32,2.26c-.57-.24-6-2.16-6.54-2.37C74.49,2.34,82.41,2.61,82.89,2.53Zm-26,1.73A5.5,5.5,0,0,1,60.17,1c2.77-1.07,6.9-.62,12.31,1.31C64.66,3.94,60,6.79,57.28,9.91l-.12-.26A6.94,6.94,0,0,1,56.88,4.26ZM55.54,24.81a9.48,9.48,0,0,1-1.41-4.5,14.06,14.06,0,0,1,3-9.59C59.8,17.14,59.57,26,58.63,33.35A21.57,21.57,0,0,0,55.54,24.81Zm2.78,13.33a23.89,23.89,0,0,1-.72,4.22l-.11,0C57.76,41.14,58.05,39.71,58.32,38.14Zm-.47,7.31,1.06.57-.85,1.38c-.3-.18-.59-.35-.89-.51ZM56.76,56.67a33.13,33.13,0,0,1,2.9,2.65L43.42,74.83C48.55,68.35,53,62.17,56.76,56.67Zm-3.13-2.23c-5.05,7.91-9.9,15.11-13.28,20L51,53A29.6,29.6,0,0,1,53.63,54.44Zm-3-1.68L38.82,76.62a5.38,5.38,0,0,0-.51-.2l7.48-25.56A31,31,0,0,1,50.61,52.76Zm-5.23-2L37.9,76.3a5.17,5.17,0,0,0-.54-.11l2.93-26.46A31.84,31.84,0,0,1,45.38,50.74Zm-5.51-1.06L36.94,76.15a5,5,0,0,0-.55,0L34.68,49.56A33.16,33.16,0,0,1,39.87,49.68Zm-5.61-.09L36,76.17a3.35,3.35,0,0,0-.54.08l-6.3-25.88A31.88,31.88,0,0,1,34.26,49.59Zm-5.54.88L35,76.34a4.56,4.56,0,0,0-.52.18L23.8,52.13A32.33,32.33,0,0,1,28.72,50.47ZM23.41,52.3l10.7,24.39a5.42,5.42,0,0,0-.48.26L18.87,54.8A33.23,33.23,0,0,1,23.41,52.3ZM18.51,55,33.28,77.19l-.43.34L14.46,58.28A33.24,33.24,0,0,1,18.51,55Zm-4.35,3.54L32.54,77.83c-.12.13-.24.26-.36.41L10.74,62.48A32.48,32.48,0,0,1,14.16,58.58Zm-3.68,4.23L31.93,78.58a4.34,4.34,0,0,0-.28.46L7.78,67.24A33.79,33.79,0,0,1,10.48,62.81ZM7.6,67.63,31.46,79.42a5.38,5.38,0,0,0-.2.51L5.7,72.45A31,31,0,0,1,7.6,67.63Zm-2,5.23,25.56,7.48a5.17,5.17,0,0,0-.11.54L4.57,78A31.84,31.84,0,0,1,5.58,72.86ZM4.52,78.37,31,81.3a5,5,0,0,0,0,.55L4.4,83.56A32,32,0,0,1,4.52,78.37ZM4.43,84,31,82.27a5.07,5.07,0,0,0,.09.54L5.21,89.11A31.88,31.88,0,0,1,4.43,84Zm.88,5.54,25.87-6.3a4.56,4.56,0,0,0,.18.52L7,94.44A32.33,32.33,0,0,1,5.31,89.52Zm1.83,5.31,24.39-10.7a3.67,3.67,0,0,0,.26.48L9.64,99.37A31.21,31.21,0,0,1,7.14,94.83Zm2.74,4.9L32,85c.11.15.22.29.34.43L13.12,103.78A32.31,32.31,0,0,1,9.88,99.73Zm3.54,4.35L32.66,85.7l.41.36L17.31,107.5A32.39,32.39,0,0,1,13.42,104.08Zm4.23,3.68L33.42,86.31a4.34,4.34,0,0,0,.46.28l-11.8,23.87A33.79,33.79,0,0,1,17.65,107.76Zm4.81,2.88,11.8-23.86a5.38,5.38,0,0,0,.51.2l-7.48,25.56A31.46,31.46,0,0,1,22.46,110.64Zm5.24,2L35.18,87.1a4.69,4.69,0,0,0,.54.11l-2.93,26.46A31.84,31.84,0,0,1,27.7,112.66Zm5.51,1.06,2.93-26.47a4.87,4.87,0,0,0,.54,0l1.72,26.58A32,32,0,0,1,33.21,113.72Zm5.61.09L37.11,87.24a5.07,5.07,0,0,0,.54-.09L44,113A31.88,31.88,0,0,1,38.82,113.81Zm5.54-.88-6.3-25.87a4.56,4.56,0,0,0,.52-.18l10.7,24.39A32.7,32.7,0,0,1,44.36,112.93Zm5.31-1.83L39,86.71l.48-.26L54.21,108.6A31.74,31.74,0,0,1,49.67,111.1Zm4.9-2.74L39.8,86.21l.43-.34,18.38,19.25A31.5,31.5,0,0,1,54.57,108.36Zm4.35-3.54L40.53,85.58c.13-.14.25-.27.36-.41l21.45,15.76A33.29,33.29,0,0,1,58.92,104.82Zm3.68-4.23L41.15,84.82c.1-.15.19-.3.28-.46l23.86,11.8A32.68,32.68,0,0,1,62.6,100.59Zm2.88-4.81L41.62,84a5.38,5.38,0,0,0,.2-.51L67.38,91A31.46,31.46,0,0,1,65.48,95.78Zm2-5.24L41.94,83.06a4.69,4.69,0,0,0,.11-.54l26.46,2.93A31.84,31.84,0,0,1,67.5,90.54ZM68.56,85,42.09,82.1a4.87,4.87,0,0,0,0-.54l26.58-1.72A32,32,0,0,1,68.56,85Zm.09-5.61L42.07,81.13a3.35,3.35,0,0,0-.08-.54l25.88-6.3A31.88,31.88,0,0,1,68.65,79.42Zm-.88-5.54L41.9,80.18a4.56,4.56,0,0,0-.18-.52L66.11,69A32.7,32.7,0,0,1,67.77,73.88Zm-1.83-5.31L41.55,79.27c-.08-.16-.17-.32-.26-.48L63.44,64A33.83,33.83,0,0,1,65.94,68.57Zm-2.74-4.9L41.05,78.44l-.26-.33c.22-.26.43-.53.65-.8L60,59.63A32.39,32.39,0,0,1,63.2,63.67Zm1.72-30.42c-.33.55-.73,1.37-.19,1.7l.53.36c-1.71,3-3.52,6.07-5.39,9.13L58.54,44l.38-.8a1.09,1.09,0,0,0-.87-.85,23.88,23.88,0,0,0,.75-7.2c1.14-7.84,1.64-17.77-1.33-24.79C60.2,7.14,65,4.2,73.23,2.57c.86.32,6.14,2.36,7.06,2.76-.83-.13-.56,1-.56,1l-4,9.3c-.85-.48-1.49,0-1.93.93Zm51.57,35.44-1.94-.28a11.44,11.44,0,0,0-2.2-.31l-.62,0a11.86,11.86,0,0,0-2.55.27c-5.24-8.56-15.73-21-36.73-36.28l4-8.07a219.86,219.86,0,0,1,42.32,39Zm77.65,6.9-26.2,4.62a5.07,5.07,0,0,0-.05-.56l24.91-9.07A31.33,31.33,0,0,1,194.14,75.59Zm-1.48-5.41-24.84,9a4.74,4.74,0,0,0-.16-.57l22.79-13.17A32,32,0,0,1,192.66,70.18Zm-2.42-5.06L167.5,78.25c-.09-.19-.19-.37-.29-.55l20.06-16.83A32.32,32.32,0,0,1,190.24,65.12ZM187,60.55,167,77.34a6.26,6.26,0,0,0-.41-.49l16.76-20A31.8,31.8,0,0,1,187,60.55Zm-5.86-5.38c.64.45,1.27.93,1.87,1.43L168.05,74.42ZM172.79,64l6-10.32.65.4Zm-17.4,42.89a.9.9,0,0,0-.06.22l-1.12-.68a.56.56,0,0,0-.62,0l7.62-20.91.33-.05-2.49,14.13Zm2.36.13-.25,1.41-.42-.26a1,1,0,0,0,.24-.3ZM132.3,70.18a31.94,31.94,0,0,1,2.2-4.7l13.34,7.7-12-1.72Zm1.46,1L132,70.92c0-.11.07-.23.11-.34Zm1-6a31.46,31.46,0,0,1,3-4.25L153.3,74,149,73.35ZM138,60.55a31.71,31.71,0,0,1,3.66-3.67l14.7,17.52-2.23-.32Zm4-3.95.45-.35a64.91,64.91,0,0,1,12.35,12.18l3.61,6.26-1.39-.2Zm7,1.78c-1.31-1.32-2.7-2.62-4.17-3.86.47-.31.94-.61,1.42-.89Zm-2.38-5a32.49,32.49,0,0,1,4.7-2.2l6.62,18.2a77.83,77.83,0,0,0-7.71-9.74ZM157.31,72c.59.89,1.17,1.82,1.73,2.77l-.14,0Zm1.6-1.06-7.24-19.89a31,31,0,0,1,5-1.34L161,74.47C160.42,73.4,159.71,72.22,158.91,71ZM157.1,49.65l1-.14,2.4,19.3ZM136.76,31.49a14.83,14.83,0,0,1,9.81,5.75c-5.71,2.54-13.58,3-13.58,3Zm-5.25,12.22c16.5-.89,21.41-7.31,22.58-9.4a1.27,1.27,0,0,1,1.11-.66h.9l1.06,8.5a38.1,38.1,0,0,0-18.44,7.91,45.63,45.63,0,0,0-8.17-4.12Zm-6,26.28-5-.72,8.85-20.59a47.5,47.5,0,0,1,6.93,3.47A38.34,38.34,0,0,0,125.54,70Zm5.84,19.75L143.74,88,132.15,92.2C131.86,91.4,131.61,90.57,131.38,89.74Zm.92,2.86,13.48-4.91,7.1-1L134.5,97.3A31.47,31.47,0,0,1,132.3,92.6Zm2.41,5.07L154,86.53l2.43-.35-18.75,15.74A32.11,32.11,0,0,1,134.71,97.67Zm3.26,4.57,19.26-16.17,1.19-.17-16.79,20A32.43,32.43,0,0,1,138,102.24Zm4,3.94,17.1-20.37.69-.1L146.2,109.16A33.07,33.07,0,0,1,142,106.18Zm4.62,3.19,13.7-23.73.46-.07-9.46,26A32.49,32.49,0,0,1,146.57,109.37Zm5.1,2.35L153.4,107a.54.54,0,0,0,.25.36l3.65,2.22-.62,3.53A33.26,33.26,0,0,1,151.67,111.72Zm10.08,1.84a32.27,32.27,0,0,1-4.65-.43l.59-3.37.05,0a.48.48,0,0,0,.28.08.54.54,0,0,0,.28-1l-.41-.25.38-2.13,3.48,2Zm0-6.33-3.2-1.83,3.2-6.35Zm0-13-2,4,2-11.55Zm.51-22.79-2.12-22.17c.7,0,1.41-.09,2.12-.09ZM159.43,41.9l-.79-8.25H193L183.4,48a38.09,38.09,0,0,0-20.92-6.24C161.45,41.77,160.44,41.82,159.43,41.9Zm3.5,33.39h-.24V49.2a32.69,32.69,0,0,1,5.17.45l-4.53,25.66Zm.83.07,4.52-25.63a31.33,31.33,0,0,1,5,1.34l-8.9,24.44A4.44,4.44,0,0,0,163.76,75.36Zm1.2.36-.17-.07,8.9-24.44a32.38,32.38,0,0,1,4.69,2.2L169.1,69.5Zm0,37.76V96.93l2.86,16.2C166.92,113.29,166,113.4,165,113.48Zm3.28-.42L165,94.48V89l8.29,22.77A33.58,33.58,0,0,1,168.28,113.06Zm5.41-1.49L165,87.7V86.19l13.38,23.18A32.38,32.38,0,0,1,173.69,111.57Zm5.06-2.41L165,85.34v-.48l.08,0L183,106.18A32.39,32.39,0,0,1,178.75,109.16Zm4.57-3.26L165.47,84.62l.3-.19L187,102.24A32.52,32.52,0,0,1,183.32,105.9Zm4-4L166.12,84.17l.29-.26,23.83,13.76A33,33,0,0,1,187.27,101.92Zm3.18-4.62L166.71,83.59l.27-.33,25.68,9.34A31.51,31.51,0,0,1,190.45,97.3Zm2.35-5.1-25.58-9.31c.08-.13.15-.27.22-.41l26.7,4.71A31,31,0,0,1,192.8,92.2Zm1.42-5.43-26.61-4.69c.06-.15.11-.31.16-.48h26.9A32.58,32.58,0,0,1,194.22,86.77Zm-26.36-5.59a4.78,4.78,0,0,0,.06-.53L194.22,76a32.58,32.58,0,0,1,.45,5.17Z"/><g id="basket"><path class="cls-1" d="M68.69,4.5A1,1,0,0,0,68.47,4a1.35,1.35,0,0,0-1-.49H37.66a1.35,1.35,0,0,0-1,.44,1,1,0,0,0-.24.52.9.9,0,0,0,0,.23V4.8l0,.52,0,.34,0,.53,0,.34,0,.52,0,.35,0,.52,0,.35,0,.52,0,.35,0,.52,0,.35,0,.52,0,.35,0,.52,0,.35,0,.52,0,.34.05.53,0,.35,0,.52,0,.34,0,.53,0,.34,0,.52,0,.35,0,.52,0,.33,0,.52,0,.35.05.52,0,.34,0,.53,0,.34,0,.53,0,.34,0,.52,0,.35,0,.52,0,.35,0,.27,0,.25,0,.35,0,.52,0,.35,0,.52,0,.34,0,.53,0,.34,0,.53,0,.34.05.52,0,.35,0,.52V28l0,.21a1.78,1.78,0,0,0,.09.33,1.11,1.11,0,0,0,.09.19,1.55,1.55,0,0,0,.21.35l.1.12a2.21,2.21,0,0,0,.46.4.67.67,0,0,0,.14.09,1.87,1.87,0,0,0,.4.2,2.94,2.94,0,0,0,.6.16l.39,0H64.38a2.63,2.63,0,0,0,.39-.06,2.34,2.34,0,0,0,.6-.19,1.86,1.86,0,0,0,.34-.19h.06v0a2.47,2.47,0,0,0,.53-.49h.07v-.09c.06-.08.11-.17.16-.25a2,2,0,0,0,.18-.53.69.69,0,0,0,0-.25v-.09h0v-.17l0-.35,0-.35,0-.52,0-.35,0-.52,0-.35,0-.52,0-.35,0-.52,0-.34,0-.53,0-.34,0-.52,0-.35,0-.52,0-.35,0-.52v-.13l0-.22,0-.52,0-.35,0-.52,0-.34,0-.53,0-.34,0-.53,0-.32,0-.52,0-.35,0-.52,0-.35,0-.52,0-.35,0-.52,0-.34,0-.53,0-.34,0-.52,0-.35,0-.52,0-.35,0-.52,0-.35,0-.52,0-.35,0-.52,0-.34,0-.53,0-.34,0-.53,0-.34,0-.52,0-.35.05-.52V4.68A1.08,1.08,0,0,0,68.69,4.5Zm-1.87.34h-.4v0h.4Zm0,1.74h-.4V6.24h.4Zm0,1.74h-.4V8h.4Zm-.08,1.74h-.33V9.71h.36Zm-.07.86h-.26v-.34h.29Zm-.08.87h-.18v-.34h.21Zm-.06.87h-.12v-.34h.14Zm-.08.87h0v-.35h.07ZM38.81,15.75h.06v.34h0Zm-.07-.87h.13v.34h-.11ZM38.66,14h.21v.35h-.18Zm-.07-.87h.28v.35h-.25Zm-.07-.87h.35v.35h-.32Zm0-.87h.4v.35h-.4Zm0-1.74h.4V10h-.4Zm0-.86h.39v.35h-.4Zm0-.87h.39v.34h-.39Zm0-.87h.4v.35h-.4Zm0-.87h.4v.35h-.4Zm0-.87h.4v.35h-.4Zm27.33-.48h-.39v0h.39Zm0,.87h-.39V5.36h.39Zm0,.87h-.4V6.23h.4Zm0,.87h-.4V7.1h.4Zm-1,.87h-.4V8h.4Zm0,.86h-.4V8.84h.4Zm1,.87h-.39V9.71h.39Zm0,.87h-.4v-.34h.4Zm0,.87h-.4v-.35h.4Zm0,.87h-.4v-.35h.4Zm0,.87h-.39v-.35h.4Zm0,6.06H65.4v-.35h.39Zm0,.87h-.4v-.35h.39Zm-.06,1.73h-.34v-.34h.37Zm-.07.87h-.27v-.34h.3Zm-.07.87h-.2v-.35h.23Zm-.07.87h-.14v-.35h.15Zm-.08.87h-.06v-.35h.09Zm-.66,2.6h-.4v-.35h.4ZM39.74,27h.1v.34h-.07Zm-.07-.87h.17v.34H39.7Zm-.07-.87h.25v.35h-.22Zm-.07-.87h.32v.35h-.29Zm-.07-.87h.39v.35h-.37Zm0-.87h.4V23h-.4Zm0-6.92h.4v.34h-.39Zm0-1.74h.4v.35h-.4Zm0-.87h.4v.35h-.4Zm0-1.74h.4v.35h-.4Zm0-1.73h.4V10h-.4Zm0-.87h.4v.35h-.4Zm0-1.74h.4v.35h-.4Zm0-1.74h.4v.35h-.4ZM64.82,6.58h-.4V6.23h.39Zm-1,1.73h-.4V8h.4Zm1,2.61h-.4v-.35h.39Zm0,.87h-.4v-.35h.4Zm0,.87h-.4v-.35h.4Zm0,.87h-.4v-.35h.4Zm1,1.73h-.4v-.34h.4Zm0,.87h-.4v-.34h.4Zm0,.85h-.4v-.33h.4Zm0,.87h-.4V17.5h.4Zm-1,1.74h-.4v-.35h.4Zm0,.87H64.4v-.34h.4Zm0,.86h-.4V21h.39Zm0,.87h-.4v-.34h.4Zm0,.87h-.4v-.35h.4Zm0,.87h-.4v-.35h.4Zm0,.87h-.39v-.35h.4Zm0,.87h-.39v-.35h.39Zm0,.87h-.4v-.34h.4Zm0,.86h-.4v-.34h.4ZM40.44,27h.4v.35h-.4Zm0-.87h.4v.35h-.4Zm0-.87h.39v.35h-.39Zm0-.87h.4v.35h-.39Zm0-.87h.4v.35h-.4Zm0-.86h.4V23h-.4Zm-1-2.61h.4v.34h-.4Zm0-1.74h.4v.35h-.4Zm0-.87h.39v.35h-.4Zm1-1.71h.39v.35h-.39Zm0-.87h.39v.35h-.39Zm0-.87h.4v.35h-.4Zm0-.87h.4v.35h-.4Zm0-.86h.4v.34h-.4Zm0-.87h.39v.34h-.39Zm0-.87h.39v.34h-.39Zm0-.87h.4V10h-.4Zm0-.87h.4v.35h-.4Zm0-.87h.4v.35h-.4Zm0-.87h.39v.35h-.39Zm0-.86h.39v.34h-.39Zm22.33.37h-.39V6.23h.39Zm0,.87h-.39V7.1h.39Zm0,.87h-.39V8h.39Zm0,.87h-.4V8.83h.39Zm1,1.74h-.39v-.35h.4Zm0,1.74h-.4v-.35h.4Zm1,2.6h-.4v-.34h.39Zm0,.87h-.4v-.35h.4Zm0,1.72h-.4V17.5h.4Zm-1,.87h-.4v-.35h.4Zm0,1.73H63.4v-.34h.39Zm0,.87H63.4V21h.39Zm0,.87h-.4v-.35h.39Zm0,.87h-.4v-.35h.4Zm0,1.74h-.4v-.35h.4Zm0,1.73h-.4v-.34h.4Zm-22.34-.38h.4v.35h-.4Zm0-.87h.4v.34h-.4Zm0-.87h.39v.35h-.4Zm0-1.73h.4V23h-.4Zm0-.87h.4v.35h-.4Zm-1-.87h.39v.35h-.39Zm0-.87h.4v.35h-.39Zm0-.87h.4v.35h-.4Zm0-.87h.4v.35h-.4Zm0-.86h.39v.34h-.4Zm1-1.72h.39v.35h-.4Zm0-.87h.39v.35h-.39Zm0-.87h.39v.35h-.39Zm0-.87h.4v.34h-.4Zm0-.86h.4v.34h-.4Zm0-.87h.4v.35h-.4Zm0-.87h.4v.35h-.4Zm0-.87h.39V10h-.39Zm0-.87h.4v.35h-.4Zm0-.87h.4v.34h-.4Zm0-.87h.4v.34h-.4ZM61.82,8.31h-.4V8h.4Zm0,.87h-.4V8.83h.4Zm1,1.74h-.4v-.35h.4Zm0,.87h-.4v-.35h.4Zm0,.86h-.39v-.34h.39Zm0,.87h-.4v-.34h.39Zm1,1.74h-.39v-.34h.4Zm0,1.72h-.4v-.33h.4Zm-1,.87h-.4V17.5h.39Zm0,.86h-.4v-.34h.4Zm0,.87h-.4v-.34h.4Zm0,.87H62.4V20.1h.4Zm0,.87H62.4V21h.39Zm0,.87H62.4v-.35h.39Zm0,.87H62.4v-.35h.39Zm0,.87h-.4v-.34h.4Zm0,.86h-.4v-.34h.4Zm0,.87h-.4v-.34h.4Zm-20.35-.37h.4v.34h-.4Zm0-1.74h.39v.35h-.39Zm0-.87h.4V23h-.4Zm-1-2.61h.39v.35h-.4Zm0-1.74h.4v.34h-.4Zm1-.86h.4v.34h-.4Zm0-.85h.4V17h-.4Zm0-.87h.4v.35h-.4Zm0-.87h.39v.35h-.4Zm0-1.73h.4v.34h-.4Zm0-1.74h.4v.35h-.4Zm0-.87h.4v.35h-.4Zm0-1.74h.4v.35h-.39Zm18.34-.49h-.39V8h.39Zm0,.87h-.4V8.83h.39Zm1,1.74h-.4v-.35h.4Zm0,1.73h-.4v-.34h.4Zm0,.87h-.4v-.34h.4Zm1,1.74h-.4v-.35h.4Zm0,.87h-.39v-.35h.4Zm-1,1.72h-.4V17.5h.4Zm0,1.73h-.4v-.34h.4Zm0,.87h-.4V20.1h.4Zm0,1.74h-.4v-.35h.4Zm0,1.73h-.4v-.34h.4Zm0,.87h-.4v-.34h.4Zm-18.35-.37h.4v.35h-.4Zm0-.87h.4v.35h-.4Zm0-.87h.39V23h-.39Zm0-.87h.4v.34h-.39Zm-1-2.61h.39v.35h-.39Zm1-.86h.39v.34h-.39Zm0-.87h.4v.35h-.39Zm0-.85h.4V17h-.4Zm0-.87h.4v.35h-.4Zm0-.86h.4v.34h-.4Zm0-.87h.39v.34h-.39Zm0-.87h.4v.35h-.39Zm0-.87h.4v.35h-.4Zm0-.87h.4v.35h-.4Zm0-.87h.4v.35h-.4Zm0-.87h.4V10h-.4Zm0-.86h.39v.34h-.4Zm16.34.37h-.39V8.83h.4Zm1,1.73h-.4v-.34h.4Zm0,.87h-.4v-.34h.4Zm0,.87h-.4v-.34h.4Zm0,.87h-.39v-.35h.4Zm1,1.74h-.4v-.35h.4Zm-1,.86h-.4v-.34h.4Zm0,.85h-.4v-.32h.4Zm0,.87h-.39V17.5h.4Zm0,.87h-.39v-.34h.39Zm0,.87h-.4v-.35h.4Zm0,.87h-.4V20.1h.4Zm0,.87h-.4V21h.4Zm0,.87H60.4v-.35h.4Zm0,.86H60.4v-.34h.39Zm0,.87h-.4v-.34h.4ZM44.45,22.68h.39V23h-.39Zm0-.86h.4v.34h-.39Zm-1-1.75h.4v.34h-.4Zm1-1.73h.4v.34h-.4Zm0-.87h.4v.35h-.4Zm0-1.72h.4v.35h-.4Zm0-1.73h.4v.34h-.4Zm0-.87h.4v.35h-.4Zm0-1.74h.4v.35h-.4Zm0-1.73h.4V10h-.4Zm15.35,1.23h-.4v-.34h.4Zm0,.87h-.4v-.35h.4Zm0,.87h-.4V12.3h.4Zm0,.87h-.4v-.35h.4Zm0,1.74h-.4v-.34h.39Zm0,.86h-.4v-.34h.4Zm0,1.72h-.4V17.5h.4Zm0,.87h-.4v-.35h.4Zm0,.87h-.39v-.35h.39Zm0,.87h-.4V20.1h.4Zm0,.87h-.4V21h.4Zm0,.87h-.4v-.34h.4Zm0,.86h-.4v-.34h.4Zm-14.35-.36h.39V23h-.39Zm0-.87h.39v.34h-.39Zm0-.87h.39v.35h-.39Zm0-.87h.4v.35h-.39Zm0-.87h.4v.35h-.4Zm0-.87h.4v.35h-.4Zm0-.86h.39v.34h-.4Zm0-.85h.39V17h-.39Zm0-.87h.4v.34h-.39Zm0-.87h.4v.34h-.4Zm0-.87h.4v.35h-.4Zm0-.87h.39v.35h-.4Zm0-.87h.39v.35h-.39Zm0-.87h.4v.35h-.4Zm0-.86h.4v.34h-.4Zm13.35.36h-.4v-.34h.4Zm0,1.74h-.4V12.3h.4Zm0,1.74h-.39V14h.39Zm0,.86h-.39v-.34h.39Zm0,1.72h-.4v-.33h.4Zm0,.87h-.4v-.35h.4Zm0,.87h-.4v-.35h.4Zm0,1.74h-.4V20.1h.39Zm0,.86h-.4V21h.4Zm0,.87h-.4v-.34h.4Zm-12.35-.36h.39v.35h-.4Zm0-1.74h.4v.35h-.4Zm0-1.74h.4v.34h-.4Zm0-.86h.4v.34h-.4Zm0-1.72h.39v.34h-.4Zm0-.87h.4v.35h-.39Zm0-.87h.4v.35h-.4Zm0-.87h.4v.35h-.4Zm0-.87h.4v.34h-.4Zm0-.87h.39v.34h-.39Zm11.35.37h-.39v-.35h.39Zm0,.87h-.4V12.3h.4Zm0,.87h-.4v-.34h.4Zm0,.86h-.4V14h.4Zm0,.87h-.39v-.34h.39Zm0,.87h-.39v-.35h.39Zm0,.85h-.39v-.33h.39Zm0,.87h-.4v-.35h.39Zm0,.87h-.4v-.35h.4Zm0,.87h-.4v-.34h.4Zm0,.86h-.39V20.1h.4Zm0,.87h-.39V21h.39ZM47.45,21h.39v.35h-.4Zm0-1.74h.4v.35h-.4Zm0-1.73h.4v.34h-.4Zm0-.85h.4V17h-.4Zm0-.87h.4v.35h-.4Zm0-.87h.39v.35h-.4Zm0-1.74h.4v.35h-.4Zm9.36-.5h-.4V12.3h.4Zm0,.86h-.4v-.34h.4Zm0,1.74h-.4V14.9h.4Zm0,.87h-.39v-.35h.4Zm0,1.72h-.4v-.35h.4Zm0,.87h-.4v-.34h.4Zm0,.86h-.4v-.34h.4Zm0,.87h-.4V20.1h.4Zm-8.36-.36h.39v.35h-.4Zm0-1.73h.4v.34h-.4Zm0-.87h.4v.35h-.4Zm0-1.72h.39v.35h-.4Zm0-.87h.39v.35h-.39Zm0-.87h.39v.35h-.39Zm0-.86h.4v.34h-.39Zm7.36,1.22h-.4V14h.4Zm0,.87h-.4V14.9h.4Zm0,1.72h-.39v-.33h.4Zm0,.87h-.4v-.35h.39Zm0,.86h-.4v-.34h.4Zm-6.37.52h.4v.34h-.4Zm0-.87h.39v.34h-.39Zm0-.87h.4v.35h-.4Zm0-.85h.4V17h-.4Zm0-.87h.4v.35h-.4Zm0-1.73h.39v.34h-.39Zm5.36,1.22h-.4V14.9h.4Zm0,.87h-.4v-.35h.4Zm0,1.72h-.39v-.34h.4Zm0,.86h-.4v-.34h.4Zm-4.37-.35h.4v.35h-.4Zm0-.87h.4v.35h-.39Zm0-.85h.4V17h-.4Zm0-.87h.4v.35h-.4Zm0-.86h.4v.34h-.4Zm3.37.35h-.4V14.9h.4Zm0,1.71h-.4v-.32h.4Zm0,.87h-.4v-.34h.4Zm-2.37-.35h.39v.35h-.4Zm0-1.72h.4v.34h-.4Zm1.37.35h-.37v-.34h.37Zm-.37.53h.37V17h-.38Zm-.6,0V17h-.39v-.33Zm.59.86h.38v.34h-.38Zm1-1.38v-.34h.4v.34Zm-.6-.87h-.37V14.9h.37Zm-1,0h-.4V14.9h.4Zm-.41,3.11h.4v.35h-.4Zm1,0h.38v.35h-.38Zm1,0h.39v.34h-.39Zm1-1.39v-.33h.4V17Zm0-2.59V14h.4v.35Zm-.6,0h-.39V14h.39Zm-1,0h-.38V14h.38Zm-1,0h-.4V14h.4Zm-1,0h-.4V14h.4Zm-1,.52v.35h-.4v-.35Zm.59,4.33h.4v.35h-.4Zm1,0h.4v.35h-.4Zm1,0h.37v.35h-.37Zm1,0h.4v.35h-.4Zm1,0h.4v.34h-.4Zm1,0h.4v.34h-.4Zm0-3.11v-.35h.4v.35Zm0-2.61v-.34h.39v.34Zm-.6,0h-.39v-.35h.4Zm-1,0h-.4v-.35h.4Zm-1,0h-.38v-.35h.38Zm-1,0h-.4v-.35h.39Zm-1,0h-.39v-.34h.39Zm-1,0h-.39v-.34h.39Zm-1,3.13V17h-.4v-.33Zm0,2.59v.34h-.39v-.34Zm.6.87h.4v.34h-.4Zm1,0h.4v.34h-.4Zm1,0h.4v.35h-.4Zm1,0h.37v.35h-.37Zm1,0h.4v.35h-.4Zm1,0h.4v.35h-.4Zm1,0h.4v.34h-.4Zm1-3.12v-.33h.39V17Zm0-2.59V14h.4v.34Zm-.6-1.74h-.39V12.3h.39Zm-1,0h-.4V12.3h.4Zm-1,0h-.4V12.3h.4Zm-1,0h-.38v-.35h.38Zm-1,0h-.39v-.35h.39Zm-1,0h-.39v-.35h.39Zm-1,0h-.39v-.34h.39Zm-1,0h-.4v-.34h.4Zm-1,0h-.4v-.34h.4Zm0,1.39v.35h-.4V14Zm0,4.33v.34h-.4v-.34Zm0,1.73v.35h-.39v-.35Zm.59.87h.4v.35h-.4Zm1,0h.4v.35h-.4Zm1,0h.4v.34h-.4Zm1,0h.4v.34h-.39Zm1,0h.37v.35h-.38Zm1,0h.4v.35h-.4Zm1,0h.4v.35h-.4Zm1,0h.4v.35h-.4Zm1,0h.4v.34h-.4Zm.42-9.18h-.4v-.35h.4Zm-1,0h-.4v-.35h.4Zm-1,0h-.4v-.34h.4Zm-1,0h-.4v-.34h.4Zm-1,0h-.37v-.35h.37Zm-1,0h-.4v-.35h.4Zm-1,0h-.4v-.35h.4Zm-1,0h-.4v-.35h.4Zm-1,0h-.4v-.35h.4Zm-1,0h-.4v-.34h.4Zm-1,4.87V17h-.4v-.32Zm0,2.58v.35h-.4v-.35Zm0,1.74v.35h-.39V21Zm.59.87h.4v.35h-.4Zm1,0h.4v.35h-.4Zm1,0h.4v.35h-.4Zm1,0h.4v.34h-.39Zm1,0h.39v.34h-.4Zm1,0h.38v.34h-.38Zm1,0h.4v.35h-.4Zm1,0h.4v.35h-.39Zm1,0h.4v.35h-.4Zm1,0h.4v.35h-.39Zm1,0h.39v.34h-.4Zm1-2.25v-.35h.4v.35Zm0-3.46v-.34h.39v.34Zm0-2.6v-.35h.4v.35Zm0-1.74v-.35h.4v.35Zm-.6-.87h-.39v-.35h.39Zm-1,0h-.4v-.35h.4Zm-1,0h-.4v-.35h.4Zm-1,0h-.4v-.34h.4Zm-1,0h-.4v-.34h.4Zm-1,0h-.37v-.34h.37Zm-1,0h-.4v-.35h.4Zm-1,0h-.4v-.35h.4Zm-1,0h-.4v-.35h.4Zm-1,0h-.4v-.35h.4Zm-1,0h-.4v-.34h.39Zm-1,0h-.39v-.34h.4Zm-.42,11.8h.4V23h-.4Zm1,0h.4V23h-.4Zm1,0h.4V23h-.4Zm1,0h.4V23h-.39Zm1,0h.39V23h-.4Zm1,0h.4V23h-.4Zm1,0h.38V23h-.38Zm1,0h.4V23h-.39Zm1,0h.39v.35h-.39Zm1,0h.4v.35h-.39Zm1,0h.39v.35h-.4Zm1,0h.4v.35h-.4Zm1,0h.4v.34h-.4Zm1-5.74v-.32h.4V17Zm0-2.58V14h.4v.35ZM58.82,10h-.39V9.7h.39Zm-1,0h-.4V9.69h.4Zm-1,0h-.4V9.69h.4Zm-1,0h-.4V9.69h.4Zm-1,0h-.4V9.69h.4Zm-1,0h-.39V9.69h.39Zm-1,0h-.37V9.69h.37Zm-1,0h-.4V9.69h.4Zm-1,0h-.4V9.68h.4Zm-1,0h-.4V9.68h.4Zm-1,0h-.39V9.68h.39Zm-1,0h-.4V9.68h.4Zm-1,0h-.4V9.68h.4Zm-1,0h-.4V9.68h.4Zm-1,.52v.35h-.4v-.35Zm0,1.74v.35h-.4v-.35Zm0,2.61v.34h-.4v-.34Zm0,1.73V17h-.4v-.33Zm0,2.59v.34h-.4v-.34Zm0,.87v.34h-.4v-.34Zm0,.87v.34h-.4V21Zm0,2.6v.35h-.4v-.35Zm.6,0h.4v.35h-.4Zm1,0h.4v.34h-.4Zm1,0h.4v.34h-.4Zm1,0h.39v.34h-.39Zm1,0h.4v.35h-.4Zm1,0h.4v.35h-.4Zm1,0h.4v.35h-.4Zm1,0h.37v.35h-.37Zm1,0h.39v.34h-.39Zm1,0h.39v.34h-.39Zm1,0h.4v.35h-.4Zm1,0h.4v.35h-.4Zm1,0h.4v.35h-.4Zm1,0h.4v.35h-.4Zm1,0h.39v.34H59.4Zm1-8.31v-.35h.4v.35Zm.4-.87h-.39V14h.39ZM59.42,10V9.7h.4v.35Zm-.59-.87h-.4V8.83h.4Zm-1,0h-.4V8.83h.4Zm-1,0h-.4V8.82h.4Zm-1,0h-.4V8.82h.39Zm-1,0h-.39V8.82h.39Zm-1,0h-.39V8.82h.39Zm-1,0h-.37V8.82h.38Zm-1,0h-.4V8.82h.4Zm-1,0h-.4V8.82h.4Zm-1,0h-.4V8.81h.39Zm-1,0h-.39V8.81h.4Zm-1,0h-.4V8.81h.4Zm-1,0h-.4V8.81h.4Zm-1,0h-.4V8.81h.39Zm-1,0h-.4V8.81h.39Zm-1,10.06v.34h-.4v-.34Zm-1,.86v.35h-.4v-.35Zm.6.88h.4v.34h-.4Zm1,3.47h.4v.35h-.4Zm1,0h.4v.35h-.4Zm1,0h.4v.35h-.4Zm1,0h.4v.34h-.39Zm1,0h.39v.34h-.4Zm1,0h.4v.34h-.4Zm1,0h.4v.35h-.4Zm1,0h.4v.35h-.4Zm1,0h.37v.35h-.37Zm1,0h.39v.35h-.4Zm1,0h.4v.34h-.4Zm1,0h.4v.34h-.4Zm1,0h.4v.35h-.4Zm1,0h.4v.35H57.4Zm1,0h.39v.35h-.4Zm1,0h.4v.35h-.4Zm1,0h.4v.35h-.4Zm1-1.38v-.35h.4v.35Zm0-1.74V21h.4v.35Zm0-2.61v-.34h.4v.34Zm0-1.73v-.33h.4V17Zm0-.85v-.35h.4v.35Zm0-1.74V14h.4v.35Zm0-2.6v-.35h.4v.35Zm-.6-1.74h-.4V9.7h.4Zm-1-1.74h-.4V8h.4Zm-1,0h-.4V8h.4Zm-1,0h-.4V8h.4Zm-1,0h-.4V8h.4Zm-1,0h-.39V8h.39Zm-1,0h-.39V8h.39Zm-1,0h-.39V8h.39Zm-1,0h-.38V8h.38Zm-1,0h-.4V8h.4Zm-1,0h-.4V8h.4Zm-1,0h-.39V8h.39Zm-1,0h-.4V8h.4Zm-1,0h-.4V7.94h.4Zm-1,0h-.4V7.94h.4Zm-1,0h-.39V7.94h.39Zm-1,0h-.39V7.94h.39Zm-1,0h-.39V7.94h.39Zm-1,0h-.4V7.94h.4Zm0,1.39V10h-.4V9.67Zm0,2.61v.34h-.4v-.34Zm0,1.74v.34h-.4V14Zm0,4.32v.34h-.4v-.34Zm-1,.86v.35h-.4V19.2Zm.59,1.74h.4v.35h-.4Zm.4.87v.35h-.4v-.35Zm0,2.61v.34h-.4v-.34Zm.6.87h.4v.35h-.4Zm1,0h.4v.35h-.4Zm1,0h.4v.35h-.4Zm1,0h.4v.35h-.4Zm1,0h.39v.35h-.39Zm1,0h.4v.34h-.4Zm1,0h.4v.34h-.4Zm1,0h.4v.35h-.4Zm1,0h.4v.35h-.4Zm1,0h.37v.35h-.37Zm1,0h.4v.35h-.4Zm1,0h.4v.34h-.4Zm1,0h.4v.34h-.4Zm1,0h.4v.34h-.4Zm1,0h.39v.35H57.4Zm1,0h.4v.35h-.4Zm1,0h.4v.35h-.4Zm1,0h.4v.35h-.4Zm1,0h.4v.34h-.4Zm1-8.34v-.33h.39V17Zm1-.85v-.35h.39v.35Zm-.59-1.74h-.4V14h.4Zm-1.39-4.34V9.7h.4v.35Zm0-2.61V7.1h.4v.34Zm-.6,0h-.4V7.09h.4Zm-1,0h-.4V7.09h.4Zm-1,0h-.4V7.09h.4Zm-1,0h-.39V7.09h.39Zm-1,0h-.4V7.09h.4Zm-1,0h-.4V7.09h.4Zm-1,0h-.4V7.08h.4Zm-1,0h-.4V7.08h.4Zm-1,0h-.38V7.08h.38Zm-1,0h-.39V7.08h.39Zm-1,0h-.4V7.08h.4Zm-1,0h-.4V7.08h.4Zm-1,0h-.4V7.08h.4Zm-1,0h-.4V7.07h.4Zm-1,0h-.39V7.07h.39Zm-1,0h-.39V7.07h.39Zm-1,0h-.4V7.07h.4Zm-1,0h-.4V7.07h.4Zm-1,0h-.4V7.07h.4Zm-1,9.21v.32h-.4v-.32Zm0,.85v.34h-.4v-.34Zm-.41,3.47h.4v.35h-.4Zm.4,2.61v.34h-.4v-.35Zm.59,2.61h.4v.34h-.4Zm1,0h.4v.34h-.4Zm1,0h.4v.34h-.4Zm1,0h.39v.35h-.39Zm1,0h.4v.35h-.4Zm1,0h.4v.35h-.4Zm1,0h.4v.35h-.4Zm1,0h.4v.34h-.4Zm1,0h.39v.34h-.39Zm1,0h.4v.35h-.4Zm1,0h.37v.35h-.37Zm1,0h.4v.35h-.4Zm1,0h.4v.35h-.4Zm1,0h.4v.34h-.4Zm1,0h.39v.34H56.4Zm1,0h.4v.34h-.4Zm1,0h.4v.35h-.4Zm1,0h.4v.35h-.4Zm1,0h.4v.35h-.4Zm1,0h.4v.35h-.4Zm1,0h.39v.34h-.39Zm1-.52v-.34h.4v.34Zm0-1.73v-.35h.4v.35Zm0-4.35v-.34h.4v.34Zm0-1.73V17.5h.4v.35Zm1-.87v-.33h.4V17Zm-.59-2.59h-.4v-.34h.4Zm-.4-.87v-.34h.4v.34Zm0-1.73v-.35h.39v.35Zm-.6-1.74h-.4V9.7h.4Zm-1-3.48h-.4V6.23h.4Zm-1,0h-.4V6.23h.4Zm-1,0h-.4V6.22h.4Zm-1,0h-.4V6.22h.4Zm-1,0h-.39V6.22h.39Zm-1,0h-.4V6.22h.4Zm-1,0h-.4V6.22h.4Zm-1,0h-.4V6.22h.4Zm-1,0h-.4V6.22h.4Zm-1,0h-.38V6.21h.37Zm-1,0h-.39V6.21h.4Zm-1,0h-.4V6.21h.4Zm-1,0h-.4V6.21h.4Zm-1,0h-.4V6.21h.4Zm-1,0h-.4V6.21h.39Zm-1,0h-.39V6.2h.4Zm-1,0h-.39V6.2h.39Zm-1,0h-.4V6.2h.4Zm-1,0h-.4V6.2h.4Zm-1,0h-.4V6.2h.4Zm-1,0h-.4V6.2h.4Zm-1,10.08v.32h-.39v-.32Zm-1,.32h-.39v-.32h.39Zm0,2.26v.35h-.4V19.2Zm0,1.74v.34h-.4v-.34Zm.6.87h.39v.34h-.4Zm1,5.21h.4v.35h-.4Zm1,0h.4v.35h-.4Zm1,0h.4v.34h-.4Zm1,0h.4v.34h-.4Zm1,0h.39v.34h-.39Zm1,0h.4v.35h-.4Zm1,0h.4v.35h-.4Zm1,0h.4v.35h-.4Zm1,0h.4v.35h-.39Zm1,0h.39v.34h-.39Zm1,0h.4v.34h-.39Zm1,0h.37v.34h-.38Zm1,0h.4v.35h-.4Zm1,0h.4v.35h-.4Zm1,0h.4v.35H55.4Zm1,0h.39v.34h-.4Zm1,0h.4v.34h-.4Zm1,0h.4v.34h-.4Zm1,0h.4v.35h-.4Zm1,0h.4v.35h-.4Zm1,0h.4v.35h-.4Zm1,0h.39v.35h-.39Zm1,0h.4v.34h-.4Zm1-8.34v-.35h.4v.35Zm1-.35h.4v.35h-.4Zm-1-4v-.34h.4v.35Zm-.59-4.34h-.4V9.7h.4Zm-.4-.87V8.84h.4v.34Zm0-1.73V7.1h.39v.35Zm0-.87V6.23h.39v.35Zm1-.87V5.36h.4v.35Zm-.61,0h-.39V5.36h.39Zm-1,0h-.4V5.36h.4Zm-1,0h-.4V5.36h.4Zm-1,0h-.4V5.36h.4Zm-1,0h-.4V5.36h.4Zm-1,0h-.39V5.35h.39Zm-1,0h-.4V5.35h.4Zm-1,0h-.4V5.35h.4Zm-1,0h-.4V5.35h.4Zm-1,0h-.4V5.35h.4Zm-1,0h-.4V5.35h.4Zm-1,0h-.37V5.35h.37Zm-1,0h-.4V5.34h.4Zm-1,0h-.4V5.34h.4Zm-1,0h-.4V5.34h.4Zm-1,0h-.39V5.34h.39Zm-1,0h-.4V5.34h.4Zm-1,0h-.4V5.34h.4Zm-1,0h-.4V5.34h.4Zm-1,0h-.4V5.33h.4Zm-1,0h-.4V5.33h.4Zm-1,0h-.4V5.33h.4Zm-1,0h-.39V5.33h.39Zm-1,0h-.4V5.33h.4Zm-1,.52v.35h-.4V6.19Zm0,1.74v.34h-.4V7.93Zm0,2.61v.34h-.4v-.34Zm0,1.73v.35h-.4v-.35Zm0,2.61v.34h-.4v-.34Zm-.41,6.93h.4v.34h-.4Zm.38,6.07v.31l0-.31Zm.6,0h.4v.35h-.4Zm1,0h.4v.35h-.4Zm1,0h.4v.35h-.4Zm1,0h.39v.35h-.39Zm1,0h.4v.35h-.4Zm1,0h.4v.34h-.4Zm1,0h.4v.34h-.4Zm1,0h.4v.35h-.4Zm1,0h.39v.35h-.39Zm1,0h.39v.35h-.39Zm1,0h.39v.35h-.39Zm1,0h.4v.34h-.4Zm1,0h.38v.34h-.38Zm1,0h.4v.34h-.4Zm1,0h.39v.35H54.4Zm1,0h.4v.35h-.4Zm1,0h.4v.35h-.4Zm1,0h.4v.35h-.4Zm1,0h.4v.34h-.4Zm1,0h.39v.34h-.39Zm1,0h.39v.34h-.39Zm1,0h.4v.35h-.4Zm1,0h.4v.35h-.4Zm1,0h.4v.35h-.4Zm2-1.52v-.21h0Zm0-5.08V21h.4v.34Zm.41-6.92h-.39v-.35h.39Zm-1-4.35h-.4V9.71h.4Zm-.4-2.6V7.1h.4v.35Zm.41-2.61h-.4v0h.4Zm-1,0h-.39v0h.4Zm-1,0h-.4v0h.4Zm-1,0h-.4v0h.4Zm-1,0h-.4v0h.4Zm-1,0h-.4v0h.39Zm-1,0h-.39v0h.4Zm-1,0h-.4v0h.4Zm-1,0h-.4v0h.4Zm-1,0h-.4v0h.4Zm-1,0h-.4v0h.4Zm-1,0h-.4v0h.4Zm-1,0h-.37v0h.37Zm-1,0h-.4v0h.4Zm-1,0h-.4v0h.4Zm-1,0h-.4v0h.4Zm-1,0h-.39v0h.39Zm-1,0h-.4v0h.4Zm-1,0h0Zm-1,0h0Zm-1,0h0Zm-1,0h0Zm-1,0h0Zm-1,0h0Zm-1,0h0Zm-1,0h0Zm-1,0h0Zm0,5.74v.34h-.4v-.34Zm1.56,18.22h.4v0h-.4Zm1,0h.39v0h-.39Zm1,0h.4v0h-.4Zm1,0h.39v0h-.39Zm1,0h.4v0h-.4Zm1,0h.4v0h-.4Zm1,0h.4v0h-.4Zm1,0h.4v0h-.4Zm1,0h.39v0h-.39Zm1,0h.39v0h-.39Zm1,0h.4v0h-.4Zm1,0h.4v0h-.4Zm1,0h.38v0h-.38Zm1,0h.39v0H53.4Zm1,0h.4v0h-.4Zm1,0h.4v0h-.4Zm1,0h.4v0h-.4Zm1,0h.4v0h-.4Zm1,0h.39v0h-.39Zm1,0h0Zm1,0h0Zm1,0h0Zm1,0h0Zm1,0h0Zm1,0h0Zm2-14.7v0h0Zm-.6-4.91h-.39V8.84h.4Zm-.39-.86V8h.4v.35Zm1-.87V7.1h.4v.35Zm0-1.74V5.37h.4v.34Zm0,3.48V8.84h.4v.35Z"/><path class="cls-1" d="M67,31.73H40a1.66,1.66,0,0,1-1.69-1.62h0A1.66,1.66,0,0,1,40,28.48H67a1.66,1.66,0,0,1,1.69,1.63h0A1.65,1.65,0,0,1,67,31.73Z"/></g></g></g></svg>