<svg xmlns="http://www.w3.org/2000/svg" viewBox="0 0 201.75 121.21"><defs><style>.cls-1{fill:#151226;}</style></defs><g id="Layer_2" data-name="Layer 2"><g id="Layer_1-2" data-name="Layer 1"><path id="bike" class="cls-1" d="M163.08,42.76A38.41,38.41,0,0,0,147.57,46l-2.42-7.56.3-.09L138.7,16.59l-.76.24s0,0,0,0l-.22-.63L157,3.47l-.09-.13a8.8,8.8,0,0,1,3.21,17.18,1.56,1.56,0,0,0,.47,3,1.44,1.44,0,0,0,.46-.08,11.89,11.89,0,0,0-6-23L154.69,0,136.35,12.09,135,8.14a1.53,1.53,0,0,0-2-1,1.55,1.55,0,0,0-1,2l2.93,8.6-.75.23L135,20.4l-60.45.15-2.8-8.32a40.39,40.39,0,0,0,12-1.21s5.2-2.24,8.36-1.9c0,0,3.56-2.75-2.4-4.64S64.18,1.73,64.18,1.73s-8.59,1-1.38,7.57a10.11,10.11,0,0,0,4.33,2.22l4.37,13-4.85,8.41-47.18-1.8a1.07,1.07,0,0,0-1.08,1,1,1,0,0,0,1,1.08l4.59.17,2.82,7.78A40.64,40.64,0,1,0,77.53,96.36l11.34,2.79a13.23,13.23,0,0,0,5.62,1.27,13.45,13.45,0,0,0,5.05-1l1.69,3.24-3-.29-.25,2.57,9.12.89.25-2.58-3-.29-2.47-4.74a13.37,13.37,0,0,0,3.36-19.45l34.88-41.93.91,2.92.54-.17,3,7.91a38.65,38.65,0,1,0,18.53-4.74ZM86.51,69.13l-4.85-1.88-.93,2.42,4.18,1.62,1,1.88L80.78,73A40.67,40.67,0,0,0,63,45.41l9.79-17ZM81.16,82.7c.09-1.12.17-2.24.17-3.37A40.16,40.16,0,0,0,80.94,74l5.49.19.72,1.38a13.57,13.57,0,0,0-5.45,7.16ZM72.42,98a.29.29,0,0,0,.06.22,38.27,38.27,0,0,1-3.18,4.59c-.09-.06-.17,0-.26,0L54.66,90.73,63.79,93ZM52.86,89.22l-6.17-5.17a7.37,7.37,0,0,0,.48-.66l13.4,7.73ZM64.11,108a37.6,37.6,0,0,1-4.6,3.18c0-.06-.13,0-.21-.06L46.37,88.69l2.28.56L64.13,107.7C64.1,107.79,64.05,107.88,64.11,108Zm-46.92-.26L35.94,85.36a8,8,0,0,0,.66.48L22,111.08c-.08,0-.15,0-.21.06a37.6,37.6,0,0,1-4.6-3.18C17.27,107.88,17.22,107.79,17.19,107.7Zm-4.9-4.91c-.09,0-.18-.08-.27,0a38.27,38.27,0,0,1-3.18-4.59c.07-.06.06-.14.06-.22L34.15,83.38a8.12,8.12,0,0,0,.48.67ZM12,55.88c.08.06.17,0,.26,0L34.63,74.6a6.29,6.29,0,0,0-.48.67L8.9,60.69c0-.08,0-.16-.06-.22A38.35,38.35,0,0,1,12,55.88Zm5.18-5.19a36.52,36.52,0,0,1,4.6-3.18c.06.06.13.05.22.06L36.6,72.81a8,8,0,0,0-.66.48L17.19,51C17.22,50.86,17.27,50.77,17.21,50.69ZM77.67,78.88c-.1,0-.14.1-.19.18H55.13l-6.41-.89L73.51,73.8l3.74.12A36.73,36.73,0,0,1,77.67,78.88ZM6,91.67c-.07,0-.13-.11-.22-.1a37.08,37.08,0,0,1-1.46-5.38c.1,0,.12-.13.15-.21l28.69-5.06a7.08,7.08,0,0,0,.25.78ZM5.75,67.08c.09,0,.15,0,.22-.1L33.38,77a7.08,7.08,0,0,0-.25.78L4.44,72.67c0-.09-.05-.19-.15-.21A37.08,37.08,0,0,1,5.75,67.08Zm69.6-.1c.07,0,.13.11.22.09A37.56,37.56,0,0,1,77,72.46c-.1,0-.11.12-.15.21l-.94.17-15.3-.51ZM71,73.71l-22.8,4a7.08,7.08,0,0,0-.25-.78L58,73.28ZM42,75v-.48a.7.7,0,0,0,.14,0Zm2.67,2.64-.15,0,.13-.23.55-.32c.05.11.15.19.2.31Zm-2.67,6,.17.49a1,1,0,0,1-.17,0Zm5.83-7.19a7.14,7.14,0,0,0-.37-.73L52,73.08l4.63.15Zm-.62-1.18a6.29,6.29,0,0,0-.48-.67l2-1.63,2.37.08Zm-.69-1.17.68-1.18.7,0ZM39.17,76h0l-.3-.3-.5-.87c.11-.06.19-.16.3-.21ZM37,77.54l.29.29h0L36,77.34a3.37,3.37,0,0,1,.21-.31Zm-.71.49h-.51l0-.18ZM4.16,73.32c.09,0,.14-.07.19-.13l28.72,5.06a7.4,7.4,0,0,0-.08.81H3.84c0-.08-.09-.18-.19-.18A36.37,36.37,0,0,1,4.16,73.32Zm-.33,6.27H33a7.4,7.4,0,0,0,.08.81L4.35,85.46c-.06-.06-.1-.13-.19-.13a36.48,36.48,0,0,1-.51-5.56C3.75,79.77,3.78,79.67,3.83,79.59Zm32,1h.5l-.47.17Zm1.51.19h0l-.3.3-.86.5a3.37,3.37,0,0,1-.21-.31ZM38.87,83l.29-.3h0L38.67,84c-.11,0-.19-.15-.3-.2Zm.49.69v.52l-.17,0Zm3.68,3,.07.21-.42-.1Zm.49-.16a6.24,6.24,0,0,0,.73-.37l.69,1.2L43.72,87ZM42.65,84l-.5-1.36h0l.29.3.5.87C42.84,83.87,42.76,84,42.65,84ZM75.17,66.48l-15.93,5.8L53.7,72.1l19-11c.08,0,.15.1.24.06a37,37,0,0,1,2.35,5.07A.32.32,0,0,0,75.17,66.48Zm-2.75-5.79L52.71,72.07,49.83,72,69,55.85c.1,0,.18.08.27,0a38.27,38.27,0,0,1,3.18,4.59A.29.29,0,0,0,72.42,60.69ZM68.7,55.46,49.05,72l-1.3,0,1.16-2L64.53,51.28c.08,0,.16,0,.23,0a38.06,38.06,0,0,1,4,4C68.67,55.3,68.69,55.37,68.7,55.46Zm-4.59-4.77c-.06.08,0,.17,0,.26L50.4,67.31,61.23,48.55C62.22,49.22,63.18,49.93,64.11,50.69ZM46.44,68,54,44.82a37.14,37.14,0,0,1,4.57,2.11ZM43,71.74l-.74,0,5-28.61c.09,0,.19-.06.21-.15a35.76,35.76,0,0,1,4.53,1.15Zm3.66-28.91c0,.08.07.13.13.19L41.74,71.7h-.47c-.11,0-.23,0-.35,0V42.5c.08,0,.18-.08.19-.18A36.48,36.48,0,0,1,46.67,42.83Zm-6.45-.51c0,.1.1.13.18.18V71.65c-.28,0-.54,0-.81.08L34.52,43c.07-.06.14-.11.14-.19A36.25,36.25,0,0,1,40.22,42.32ZM33.8,43c0,.09.12.11.21.15L38.58,69,29.5,44A36.47,36.47,0,0,1,33.8,43Zm-6.19,1.75c.05.08.13.08.21.1l10,27.38c-.26.11-.49.24-.73.37L22.48,47.3c0-.08.1-.15.06-.24A38.26,38.26,0,0,1,27.61,44.71ZM8.4,61.2c.09,0,.16,0,.24-.06L33.9,75.72c-.13.24-.26.48-.37.73l-27.38-10a.32.32,0,0,0-.1-.21A37,37,0,0,1,8.4,61.2Zm-2.25,31,27.38-10c.11.25.24.49.37.73L8.64,97.51c-.08,0-.15-.1-.24-.07a36.37,36.37,0,0,1-2.35-5.06C6.13,92.33,6.13,92.25,6.15,92.16Zm16.33,19.18L37.06,86.08a6.24,6.24,0,0,0,.73.37l-10,27.39a.25.25,0,0,0-.21.1,37.08,37.08,0,0,1-5.07-2.36C22.58,111.5,22.52,111.42,22.48,111.34ZM28.31,114l10-27.4.45.14,0,.06.34.08L34,115.54c-.09,0-.19.06-.21.15a37.21,37.21,0,0,1-5.39-1.46C28.43,114.14,28.36,114.08,28.31,114Zm6.21,1.62,5-28.61.83.2v28.93c-.08,0-.18.08-.18.18a36.25,36.25,0,0,1-5.56-.51C34.65,115.73,34.59,115.69,34.52,115.63Zm6.4.52V87.35l.93.23,4.95,28.05c-.06.06-.13.1-.13.19a36.48,36.48,0,0,1-5.56.51C41.1,116.23,41,116.2,40.92,116.15Zm6.6-.46c0-.09-.12-.11-.21-.15L42.4,87.71l1.14.28L53,114a.28.28,0,0,0-.1.21A37.21,37.21,0,0,1,47.52,115.69Zm6.19-1.75a.25.25,0,0,0-.21-.1l-9.35-25.7,1.52.38,13.18,22.82c-.05.08-.1.16-.07.24A36.54,36.54,0,0,1,53.71,113.94ZM45.65,87.45l-.93-1.61a8,8,0,0,0,.66-.48l2.14,2.55ZM45.78,85a7.93,7.93,0,0,0,.58-.58l5.35,4.49-3.33-.82Zm1.64-2.1.12-.22,2.71.38,24.92,9.07c0,.09,0,.17.1.22-.27.72-.56,1.44-.88,2.14l-12-3Zm28.15,8.64c-.09,0-.15.05-.22.1L52.73,83.44l24.2,3.38A37.53,37.53,0,0,1,75.57,91.57Zm-16.69-12H77.49c.05.08.08.17.18.18,0,.82-.06,1.62-.12,2.42Zm31,1.22-1.54-1.54c.17-.14.33-.3.52-.43Zm-3-.07,3.05,3-.09.13-4.48-.63A9.9,9.9,0,0,1,86.85,80.74ZM85.06,88l4.09.57A5.26,5.26,0,0,0,89.9,90l-3.05,3A9.85,9.85,0,0,1,84.72,88Zm6.3,3.56a5.49,5.49,0,0,0,2.1.86v4.31a9.76,9.76,0,0,1-5.14-2.12ZM97.13,82a5.67,5.67,0,0,0-1.6-.52V77.14a9.81,9.81,0,0,1,4.37,1.52ZM60.38,43.79a39.63,39.63,0,0,0-5.25-2.42l2.2-6.73,8.15.31ZM25.66,33.43l29.52,1.13-2,6.09a40.39,40.39,0,0,0-24.92,0ZM16.57,51.26c.06.06.14,0,.22,0L35.54,73.62a7.93,7.93,0,0,0-.58.58L12.62,55.45a.28.28,0,0,0,0-.22A37.2,37.2,0,0,1,16.57,51.26Zm-4,52.16c.05-.07,0-.14,0-.23L35,84.45a7.93,7.93,0,0,0,.58.58L16.79,107.36a.3.3,0,0,0-.23,0A37,37,0,0,1,12.6,103.42Zm52.16,4a.3.3,0,0,0-.23,0l-15-17.9,4,1L68.7,103.19c0,.09,0,.16,0,.23A37,37,0,0,1,64.76,107.38Zm8.16-9.93c-.09,0-.16,0-.24.06l-7.07-4.08,8.32,2C73.61,96.14,73.28,96.8,72.92,97.45Zm5.07-2a39.65,39.65,0,0,0,2.54-8.09l.5.07a13.42,13.42,0,0,0,5.06,10Zm17.54,1.27V92.37l.31-.06,2,3.85A9.35,9.35,0,0,1,95.53,96.68ZM99.13,93l1.54,1.54c-.17.14-.33.29-.52.42Zm3,.07-3-3A5.56,5.56,0,0,0,100,88h4.31A9.76,9.76,0,0,1,102.14,93.09Zm2.12-7.21H100a4.26,4.26,0,0,0-.13-.64l3-3.6A9.77,9.77,0,0,1,104.26,85.88Zm-2-10a13.4,13.4,0,0,0-7.73-2.47c-.13,0-.24,0-.37,0l-1.8-.06L76,24.69l60.33-.14,2.34,7.56Zm88.09,27.85c-.08,0-.16,0-.25,0L166.89,84.29l.18-.27,26.21,15.13c0,.07,0,.14.06.2A35.79,35.79,0,0,1,190.31,103.72Zm-4.93,4.93a35.79,35.79,0,0,1-4.37,3c-.06-.06-.13-.05-.2-.06l-15.14-26.2.28-.19L185.4,108.4C185.37,108.49,185.32,108.57,185.38,108.65Zm-44.61-.25,19.44-23.17.28.19-15.13,26.2c-.07,0-.15,0-.2.06a35.79,35.79,0,0,1-4.37-3C140.84,108.57,140.79,108.49,140.77,108.4Zm-4.66-4.66c-.09,0-.18-.08-.25,0a34.71,34.71,0,0,1-3-4.37c.06,0,0-.13,0-.21L159.09,84c.06.09.12.19.19.28Zm-.25-44.61c.08,0,.16,0,.25,0l23.17,19.44c-.07.09-.13.19-.19.28L132.88,63.7a.24.24,0,0,0,0-.2A34.71,34.71,0,0,1,135.86,59.13Zm4.93-4.93a35.79,35.79,0,0,1,4.37-3,.24.24,0,0,0,.2,0l1.8,3.12,5.4,14.17L140.77,54.45C140.79,54.36,140.84,54.28,140.79,54.2Zm5-3.35.21.55-.25-.43A.28.28,0,0,0,145.83,50.85Zm5.6-2.61a34,34,0,0,1,5.13-1.39c0,.09.12.1.2.14L162,76.79l-.34.07L151.34,48.44C151.39,48.38,151.45,48.32,151.43,48.24Zm34,6.2L166,77.62l-.28-.19,15.14-26.21c.07,0,.14,0,.19,0a35.9,35.9,0,0,1,4.38,3C185.33,54.28,185.37,54.36,185.4,54.44Zm4.66,4.67c.09,0,.17.07.25,0a35.79,35.79,0,0,1,3,4.37c-.06.06-.05.13-.06.2L167.07,78.84a2.9,2.9,0,0,0-.19-.29Zm6.21,34c-.08,0-.14.05-.2.1L167.65,82.82c0-.1,0-.22.07-.33l29.8,5.26c0,.08,0,.17.14.2A35.13,35.13,0,0,1,196.27,93.07Zm-31.47-9.9-.29.24-.38.23-.44.16h-.09v-.39a2,2,0,0,0,1.48-1.48h.39l0,.11-.15.43-.2.33Zm-3.45,0-.27-.32-.22-.39-.15-.4v-.11h.39a2,2,0,0,0,1.47,1.48v.39h-.08l-.45-.17-.36-.21Zm-31.25,10a.28.28,0,0,0-.21-.1A34.79,34.79,0,0,1,128.5,88c.09,0,.11-.12.15-.2l29.8-5.26a1.76,1.76,0,0,0,.07.33Zm-.21-23.39c.09,0,.14,0,.21-.1L158.52,80c0,.11,0,.23-.07.34l-29.8-5.25c0-.09-.05-.19-.15-.21A34.79,34.79,0,0,1,129.89,69.78Zm34.93,9.91.27.33.21.36.15.41,0,.12h-.39a2,2,0,0,0-1.48-1.48V79l.12,0,.41.15.36.21Zm31.25-10c.06,0,.12.11.2.09a35.26,35.26,0,0,1,1.39,5.13c-.09,0-.11.12-.14.21l-29.8,5.25c0-.11,0-.23-.07-.34Zm-28.19,11.5c0-.12,0-.22-.07-.34l29.8-5.25c0,.06.09.12.18.12a35.5,35.5,0,0,1,.48,5.29c-.09,0-.13.1-.18.18Zm-5.43-2.12.11,0v.39l-.12,0-.21-.31Zm-1.07,1.2a2,2,0,0,0-.29.65h-.39l0-.12.14-.38.23-.41,0-.06Zm-33-4.55c.08,0,.12-.06.18-.12l29.79,5.25c0,.12-.06.22-.07.34H128.07c0-.08-.08-.17-.18-.18A35.5,35.5,0,0,1,128.38,75.71Zm-.31,6h30.21c0,.12.06.23.07.34l-29.79,5.25c-.05-.06-.1-.13-.18-.13a34,34,0,0,1-.49-5.28C128,81.84,128,81.75,128.07,81.67Zm69.72,5.47c-.09,0-.13.06-.19.12L167.81,82a3.4,3.4,0,0,0,.07-.34H198.1c.05.08.08.17.17.18A35.5,35.5,0,0,1,197.79,87.14ZM195.9,69.22,167.55,79.54a3,3,0,0,0-.2-.29l26.18-15.12c.07,0,.14.09.22.06A34.74,34.74,0,0,1,196,69C195.92,69.06,195.91,69.14,195.9,69.22ZM180.38,51,165.26,77.16A3,3,0,0,0,165,77l10.32-28.35c.08,0,.15,0,.2-.09a35.88,35.88,0,0,1,4.83,2.23C180.28,50.84,180.34,50.9,180.38,51Zm-5.55-2.54L164.49,76.86l-.34-.07L169.4,47c.09,0,.18-.05.21-.14a33.91,33.91,0,0,1,5.12,1.39C174.72,48.32,174.78,48.38,174.83,48.44Zm-5.91-1.54-5.25,29.8a2.05,2.05,0,0,0-.34-.07V46.41c.08,0,.17-.08.17-.17a35.52,35.52,0,0,1,5.3.48C168.8,46.8,168.86,46.85,168.92,46.9Zm-6.08-.49V76.63a1.86,1.86,0,0,0-.34.07l-5.26-29.8c.06,0,.13-.09.13-.18a35.5,35.5,0,0,1,5.29-.48C162.67,46.33,162.76,46.36,162.84,46.41Zm-8.31,21.42L154,66.22l3.25,5.64Zm-22.12-3.64c.08,0,.15,0,.22-.06l26.18,15.12a2.9,2.9,0,0,0-.19.29L130.27,69.22c0-.08,0-.16-.1-.2A34.74,34.74,0,0,1,132.41,64.19Zm-2.14,29.44,28.34-10.32c0,.11.15.19.2.29L132.63,98.72c-.07,0-.14-.1-.22-.06a34.74,34.74,0,0,1-2.24-4.83C130.24,93.79,130.25,93.71,130.27,93.63Zm15.52,18.25L160.9,85.7c.11,0,.19.15.3.19l-10.32,28.35c-.08,0-.16,0-.21.1a35.8,35.8,0,0,1-4.82-2.24C145.89,112,145.83,112,145.79,111.88Zm5.55,2.53L161.68,86l.34.07-5.26,29.8c-.08,0-.18,0-.2.15a35.28,35.28,0,0,1-5.13-1.4C151.45,114.53,151.39,114.47,151.34,114.41Zm5.9,1.54,5.26-29.79a3.43,3.43,0,0,0,.34.06v30.22c-.08,0-.17.08-.18.17a35.5,35.5,0,0,1-5.29-.48C157.37,116.05,157.31,116,157.24,116Zm6.09.49V86.22c.12,0,.22,0,.34-.06L168.92,116c-.06,0-.13.1-.13.18a35.25,35.25,0,0,1-5.28.48C163.5,116.52,163.41,116.48,163.33,116.44Zm6.28-.43c0-.1-.12-.12-.21-.15l-5.25-29.8.34-.07,10.34,28.42c-.05.06-.11.12-.1.2A35.15,35.15,0,0,1,169.61,116Zm5.88-1.68c0-.07-.12-.07-.2-.09L165,85.89c.11,0,.19-.14.29-.19l15.12,26.17c0,.08-.1.15-.07.23A34,34,0,0,1,175.49,114.33Zm18.27-15.67c-.09,0-.15,0-.23.06L167.35,83.6a3,3,0,0,0,.2-.29L195.9,93.63c0,.08,0,.16.09.2A35.88,35.88,0,0,1,193.76,98.66Zm-4-40.14a.26.26,0,0,0,0,.21L166.61,78.14l-.25-.24,19.42-23.14a.26.26,0,0,0,.21,0A35.41,35.41,0,0,1,189.76,58.52Zm-39.08-10c0,.08.12.08.2.1L161.2,77a1.87,1.87,0,0,0-.29.2L153.31,64l-4.68-14.64C149.3,49.05,150,48.78,150.68,48.51Zm-10.51,6.23a.28.28,0,0,0,.22,0l17.17,20.46,2.1,2.77c0,.05-.06.11-.1.15L136.42,58.73c0-.08,0-.15,0-.21A34.5,34.5,0,0,1,140.17,54.74Zm-3.77,49.6a.28.28,0,0,0,0-.22L159.55,84.7l.25.25-19.41,23.14a.28.28,0,0,0-.22,0A35.31,35.31,0,0,1,136.4,104.34ZM186,108.11a.26.26,0,0,0-.21,0L166.36,85l.25-.25,23.14,19.42c0,.08,0,.15,0,.21A36.36,36.36,0,0,1,186,108.11Z"/><path id="bag" class="cls-1" d="M63.86,33.12V32.4a9.29,9.29,0,0,0-9.28-9.28h-.41v-.27a1.28,1.28,0,0,0-1.28-1.28H47.22a1.28,1.28,0,0,0-1.29,1.28v.27H43.65a.85.85,0,0,0,0-.23.77.77,0,0,0-.78-.77H31a.77.77,0,0,0-.78.77.59.59,0,0,0,0,.23H28.5v-.27A1.83,1.83,0,0,0,26.67,21H19.19a1.83,1.83,0,0,0-1.83,1.83v.28a9.24,9.24,0,0,0-8.13,4.95H8A1.85,1.85,0,0,0,6.1,29.92V32.2A1.85,1.85,0,0,0,8,34.05h.21v2.77A2.41,2.41,0,0,0,6.1,39.2V52.05a2.41,2.41,0,0,0,2.06,2.39v6.09a3.73,3.73,0,0,0,3.73,3.74H60.12a3.74,3.74,0,0,0,3.73-3.66,2.16,2.16,0,0,0,1.84-2.13V35.24A2.14,2.14,0,0,0,63.86,33.12Z"/><path class="cls-1" d="M41.54,96v1.54a.81.81,0,0,1-.76.81h0a.8.8,0,0,1-.85-.7l-.23-1.74a.43.43,0,0,1,0-.16l.13-1.87,1.05-14.45L40,79.34l-4,40.94a.82.82,0,0,0,.71.89l.31,0a.81.81,0,0,0,.91-.74l1.43-19.73A.83.83,0,0,1,40,100l.58-.12a.81.81,0,0,1,1,.79v1.8h1.14V96Z"/></g></g></svg>